<svg xmlns="http://www.w3.org/2000/svg" viewBox="0 0 706 527" width="706" height="527" role="img" aria-label="Radar V6 — wiring (pin → net)">
<rect width="706" height="527" fill="#ffffff"/>
<text x="30" y="40" style="font-family:'DejaVu Sans',Helvetica,Arial,sans-serif;font-size:22px;font-weight:bold" fill="#111">Radar V6 — wiring (pin → net)</text>
<text x="30" y="64" style="font-family:'DejaVu Sans',Helvetica,Arial,sans-serif;font-size:13px" fill="#555">7 wires. Hover a dot for the net-list row ID.</text>
<g class="net" data-net="VIN_5V">
<line x1="288" y1="371.5" x2="288" y2="429.5" stroke="#e03131" stroke-width="3.2" stroke-linecap="round"/>
<text transform="translate(292,158) rotate(-60)" style="font-family:'DejaVu Sans',Helvetica,Arial,sans-serif;font-size:11px;font-weight:bold" fill="#e03131">VIN_5V</text>
<line x1="288" y1="162" x2="288" y2="371.5" stroke="#e03131" stroke-width="1" stroke-dasharray="2 3" opacity="0.5"/>
</g>
<g class="net" data-net="3V3">
<line x1="314" y1="204.5" x2="314" y2="230.5" stroke="#7048e8" stroke-width="3.2" stroke-linecap="round"/>
<text transform="translate(318,158) rotate(-60)" style="font-family:'DejaVu Sans',Helvetica,Arial,sans-serif;font-size:11px;font-weight:bold" fill="#7048e8">3V3</text>
<line x1="314" y1="162" x2="314" y2="204.5" stroke="#7048e8" stroke-width="1" stroke-dasharray="2 3" opacity="0.5"/>
</g>
<g class="net" data-net="GND">
<line x1="340" y1="246.5" x2="340" y2="450.5" stroke="#111418" stroke-width="3.2" stroke-linecap="round"/>
<text transform="translate(344,158) rotate(-60)" style="font-family:'DejaVu Sans',Helvetica,Arial,sans-serif;font-size:11px;font-weight:bold" fill="#111418">GND</text>
<line x1="340" y1="162" x2="340" y2="246.5" stroke="#111418" stroke-width="1" stroke-dasharray="2 3" opacity="0.5"/>
</g>
<g class="net" data-net="TRIG">
<line x1="366" y1="225.5" x2="366" y2="251.5" stroke="#1c7ed6" stroke-width="3.2" stroke-linecap="round"/>
<text transform="translate(370,158) rotate(-60)" style="font-family:'DejaVu Sans',Helvetica,Arial,sans-serif;font-size:11px;font-weight:bold" fill="#1c7ed6">TRIG</text>
<line x1="366" y1="162" x2="366" y2="225.5" stroke="#1c7ed6" stroke-width="1" stroke-dasharray="2 3" opacity="0.5"/>
</g>
<g class="net" data-net="ECHO">
<line x1="392" y1="256.5" x2="392" y2="356.5" stroke="#2f9e44" stroke-width="3.2" stroke-linecap="round"/>
<text transform="translate(396,158) rotate(-60)" style="font-family:'DejaVu Sans',Helvetica,Arial,sans-serif;font-size:11px;font-weight:bold" fill="#2f9e44">ECHO</text>
<line x1="392" y1="162" x2="392" y2="256.5" stroke="#2f9e44" stroke-width="1" stroke-dasharray="2 3" opacity="0.5"/>
</g>
<g class="net" data-net="SERVO_PWM">
<line x1="418" y1="267.5" x2="418" y2="366.5" stroke="#e67700" stroke-width="3.2" stroke-linecap="round"/>
<text transform="translate(422,158) rotate(-60)" style="font-family:'DejaVu Sans',Helvetica,Arial,sans-serif;font-size:11px;font-weight:bold" fill="#e67700">SERVO_PWM</text>
<line x1="418" y1="162" x2="418" y2="267.5" stroke="#e67700" stroke-width="1" stroke-dasharray="2 3" opacity="0.5"/>
</g>
<g class="net" data-net="3V3" data-row="N01">
<title>N01 CN1.3V3 → 3V3 — 3.3 V from the CYD regulator</title>
<line x1="242" y1="212.5" x2="314" y2="212.5" stroke="#7048e8" stroke-width="2"/>
<circle cx="314" cy="212.5" r="4.2" fill="#7048e8" stroke="#fff" stroke-width="1.2"/>
</g>
<g class="net" data-net="3V3" data-row="N02">
<title>N02 SENSOR.VCC → 3V3 — RCWL-1601 / HC-SR04P runs at 3.3 V</title>
<line x1="464" y1="222.5" x2="314" y2="222.5" stroke="#7048e8" stroke-width="2"/>
<circle cx="314" cy="222.5" r="4.2" fill="#7048e8" stroke="#fff" stroke-width="1.2"/>
</g>
<g class="net" data-net="TRIG" data-row="N03">
<title>N03 CN1.IO27 → TRIG — 10 µs trigger pulse</title>
<line x1="242" y1="233.5" x2="366" y2="233.5" stroke="#1c7ed6" stroke-width="2"/>
<circle cx="366" cy="233.5" r="4.2" fill="#1c7ed6" stroke="#fff" stroke-width="1.2"/>
</g>
<g class="net" data-net="TRIG" data-row="N04">
<title>N04 SENSOR.TRIG → TRIG</title>
<line x1="464" y1="243.5" x2="366" y2="243.5" stroke="#1c7ed6" stroke-width="2"/>
<circle cx="366" cy="243.5" r="4.2" fill="#1c7ed6" stroke="#fff" stroke-width="1.2"/>
</g>
<g class="net" data-net="ECHO" data-row="N05">
<title>N05 P3.IO35 → ECHO — input-only pin; 3.3 V echo, no divider</title>
<line x1="242" y1="348.5" x2="392" y2="348.5" stroke="#2f9e44" stroke-width="2"/>
<circle cx="392" cy="348.5" r="4.2" fill="#2f9e44" stroke="#fff" stroke-width="1.2"/>
</g>
<g class="net" data-net="ECHO" data-row="N06">
<title>N06 SENSOR.ECHO → ECHO</title>
<line x1="464" y1="264.5" x2="392" y2="264.5" stroke="#2f9e44" stroke-width="2"/>
<circle cx="392" cy="264.5" r="4.2" fill="#2f9e44" stroke="#fff" stroke-width="1.2"/>
</g>
<g class="net" data-net="GND" data-row="N07">
<title>N07 CN1.GND → GND — common ground</title>
<line x1="242" y1="254.5" x2="340" y2="254.5" stroke="#111418" stroke-width="2"/>
<circle cx="340" cy="254.5" r="4.2" fill="#111418" stroke="#fff" stroke-width="1.2"/>
</g>
<g class="net" data-net="GND" data-row="N08">
<title>N08 SENSOR.GND → GND</title>
<line x1="464" y1="285.5" x2="340" y2="285.5" stroke="#111418" stroke-width="2"/>
<circle cx="340" cy="285.5" r="4.2" fill="#111418" stroke="#fff" stroke-width="1.2"/>
</g>
<g class="net" data-net="SERVO_PWM" data-row="N09">
<title>N09 CN1.IO22 → SERVO_PWM — 50 Hz pulses, 1000–2000 µs</title>
<line x1="242" y1="275.5" x2="418" y2="275.5" stroke="#e67700" stroke-width="2"/>
<circle cx="418" cy="275.5" r="4.2" fill="#e67700" stroke="#fff" stroke-width="1.2"/>
</g>
<g class="net" data-net="SERVO_PWM" data-row="N10">
<title>N10 SERVO.SIGNAL → SERVO_PWM — orange (or yellow/white) lead</title>
<line x1="464" y1="358.5" x2="418" y2="358.5" stroke="#e67700" stroke-width="2"/>
<circle cx="418" cy="358.5" r="4.2" fill="#e67700" stroke="#fff" stroke-width="1.2"/>
</g>
<g class="net" data-net="VIN_5V" data-row="N11">
<title>N11 P1.VIN → VIN_5V — USB 5 V on the board side. VERIFY on your board</title>
<line x1="242" y1="421.5" x2="288" y2="421.5" stroke="#e03131" stroke-width="2"/>
<circle cx="288" cy="421.5" r="4.2" fill="#e03131" stroke="#fff" stroke-width="1.2"/>
</g>
<g class="net" data-net="VIN_5V" data-row="N12">
<title>N12 SERVO.+5V → VIN_5V — red lead (middle)</title>
<line x1="464" y1="379.5" x2="288" y2="379.5" stroke="#e03131" stroke-width="2"/>
<circle cx="288" cy="379.5" r="4.2" fill="#e03131" stroke="#fff" stroke-width="1.2"/>
</g>
<g class="net" data-net="GND" data-row="N13">
<title>N13 P1.GND → GND — same copper as CN1.GND</title>
<line x1="242" y1="442.5" x2="340" y2="442.5" stroke="#111418" stroke-width="2"/>
<circle cx="340" cy="442.5" r="4.2" fill="#111418" stroke="#fff" stroke-width="1.2"/>
</g>
<g class="net" data-net="GND" data-row="N14">
<title>N14 SERVO.GND → GND — brown (or black) lead</title>
<line x1="464" y1="400.5" x2="340" y2="400.5" stroke="#111418" stroke-width="2"/>
<circle cx="340" cy="400.5" r="4.2" fill="#111418" stroke="#fff" stroke-width="1.2"/>
</g>
<rect x="30" y="170" width="212" height="120" rx="7" fill="#f6f8f7" stroke="#2b3a33" stroke-width="1.6"/>
<rect x="30" y="170" width="212" height="26" rx="7" fill="#1f3b2d"/>
<rect x="30" y="188" width="212" height="8" fill="#1f3b2d"/>
<text x="40" y="188" style="font-family:'DejaVu Sans',Helvetica,Arial,sans-serif;font-size:13px;font-weight:bold" fill="#d9f7e3">CYD connector CN1</text>
<text x="232" y="216.5" text-anchor="end" style="font-family:'DejaVu Sans',Helvetica,Arial,sans-serif;font-size:12.5px" fill="#111">3V3</text>
<text x="232" y="237.5" text-anchor="end" style="font-family:'DejaVu Sans',Helvetica,Arial,sans-serif;font-size:12.5px" fill="#111">IO27</text>
<text x="232" y="258.5" text-anchor="end" style="font-family:'DejaVu Sans',Helvetica,Arial,sans-serif;font-size:12.5px" fill="#111">GND</text>
<text x="232" y="279.5" text-anchor="end" style="font-family:'DejaVu Sans',Helvetica,Arial,sans-serif;font-size:12.5px" fill="#111">IO22</text>
<rect x="30" y="306" width="212" height="57" rx="7" fill="#f6f8f7" stroke="#2b3a33" stroke-width="1.6"/>
<rect x="30" y="306" width="212" height="26" rx="7" fill="#1f3b2d"/>
<rect x="30" y="324" width="212" height="8" fill="#1f3b2d"/>
<text x="40" y="324" style="font-family:'DejaVu Sans',Helvetica,Arial,sans-serif;font-size:13px;font-weight:bold" fill="#d9f7e3">CYD connector P3</text>
<text x="232" y="352.5" text-anchor="end" style="font-family:'DejaVu Sans',Helvetica,Arial,sans-serif;font-size:12.5px" fill="#111">IO35</text>
<rect x="30" y="379" width="212" height="78" rx="7" fill="#f6f8f7" stroke="#2b3a33" stroke-width="1.6"/>
<rect x="30" y="379" width="212" height="26" rx="7" fill="#1f3b2d"/>
<rect x="30" y="397" width="212" height="8" fill="#1f3b2d"/>
<text x="40" y="397" style="font-family:'DejaVu Sans',Helvetica,Arial,sans-serif;font-size:13px;font-weight:bold" fill="#d9f7e3">CYD connector P1</text>
<text x="232" y="425.5" text-anchor="end" style="font-family:'DejaVu Sans',Helvetica,Arial,sans-serif;font-size:12.5px" fill="#111">VIN</text>
<text x="232" y="446.5" text-anchor="end" style="font-family:'DejaVu Sans',Helvetica,Arial,sans-serif;font-size:12.5px" fill="#111">GND</text>
<rect x="464" y="180" width="212" height="120" rx="7" fill="#f6f8f7" stroke="#2b3a33" stroke-width="1.6"/>
<rect x="464" y="180" width="212" height="26" rx="7" fill="#1f3b2d"/>
<rect x="464" y="198" width="212" height="8" fill="#1f3b2d"/>
<text x="474" y="198" style="font-family:'DejaVu Sans',Helvetica,Arial,sans-serif;font-size:13px;font-weight:bold" fill="#d9f7e3">RCWL-1601 / HC-SR04P</text>
<text x="474" y="226.5" style="font-family:'DejaVu Sans',Helvetica,Arial,sans-serif;font-size:12.5px" fill="#111">VCC</text>
<text x="474" y="247.5" style="font-family:'DejaVu Sans',Helvetica,Arial,sans-serif;font-size:12.5px" fill="#111">TRIG</text>
<text x="474" y="268.5" style="font-family:'DejaVu Sans',Helvetica,Arial,sans-serif;font-size:12.5px" fill="#111">ECHO</text>
<text x="474" y="289.5" style="font-family:'DejaVu Sans',Helvetica,Arial,sans-serif;font-size:12.5px" fill="#111">GND</text>
<rect x="464" y="316" width="212" height="99" rx="7" fill="#f6f8f7" stroke="#2b3a33" stroke-width="1.6"/>
<rect x="464" y="316" width="212" height="26" rx="7" fill="#1f3b2d"/>
<rect x="464" y="334" width="212" height="8" fill="#1f3b2d"/>
<text x="474" y="334" style="font-family:'DejaVu Sans',Helvetica,Arial,sans-serif;font-size:13px;font-weight:bold" fill="#d9f7e3">SG90 micro servo</text>
<text x="474" y="362.5" style="font-family:'DejaVu Sans',Helvetica,Arial,sans-serif;font-size:12.5px" fill="#111">SIGNAL</text>
<text x="474" y="383.5" style="font-family:'DejaVu Sans',Helvetica,Arial,sans-serif;font-size:12.5px" fill="#111">+5V</text>
<text x="474" y="404.5" style="font-family:'DejaVu Sans',Helvetica,Arial,sans-serif;font-size:12.5px" fill="#111">GND</text>
<text x="30" y="489" style="font-family:'DejaVu Sans',Helvetica,Arial,sans-serif;font-size:11.5px" fill="#666">Generated from the NETLIST table in docs/WIRING.md by scripts/gen_diagrams.py — do not edit by hand.</text>
<text x="30" y="507" style="font-family:'DejaVu Sans',Helvetica,Arial,sans-serif;font-size:11.5px" fill="#666">Dots mark connections; lines that cross without a dot are not connected. Follow labels, not wire colours.</text>
</svg>
