<svg xmlns="http://www.w3.org/2000/svg" viewBox="0 0 784 872" width="784" height="872" role="img" aria-label="Radar V5.1 — power wiring">
<rect width="784" height="872" fill="#ffffff"/>
<text x="30" y="40" style="font-family:'DejaVu Sans',Helvetica,Arial,sans-serif;font-size:22px;font-weight:bold" fill="#111">Radar V5.1 — power wiring</text>
<text x="30" y="64" style="font-family:'DejaVu Sans',Helvetica,Arial,sans-serif;font-size:13px" fill="#555">Fuse on battery +, switch cuts the load, separate servo and ESP32 branches.</text>
<g class="net" data-net="USB_5V">
<line x1="288" y1="204.5" x2="288" y2="314.5" stroke="#e8590c" stroke-width="3.2" stroke-linecap="round"/>
<text transform="translate(292,158) rotate(-60)" style="font-family:'DejaVu Sans',Helvetica,Arial,sans-serif;font-size:11px;font-weight:bold" fill="#e8590c">USB_5V</text>
<line x1="288" y1="162" x2="288" y2="204.5" stroke="#e8590c" stroke-width="1" stroke-dasharray="2 3" opacity="0.5"/>
</g>
<g class="net" data-net="USB_GND">
<line x1="314" y1="225.5" x2="314" y2="335.5" stroke="#5c636a" stroke-width="3.2" stroke-linecap="round"/>
<text transform="translate(318,158) rotate(-60)" style="font-family:'DejaVu Sans',Helvetica,Arial,sans-serif;font-size:11px;font-weight:bold" fill="#5c636a">USB_GND</text>
<line x1="314" y1="162" x2="314" y2="225.5" stroke="#5c636a" stroke-width="1" stroke-dasharray="2 3" opacity="0.5"/>
</g>
<g class="net" data-net="BAT_RAW">
<line x1="340" y1="476.5" x2="340" y2="586.5" stroke="#b02a2a" stroke-width="3.2" stroke-linecap="round"/>
<text transform="translate(344,158) rotate(-60)" style="font-family:'DejaVu Sans',Helvetica,Arial,sans-serif;font-size:11px;font-weight:bold" fill="#b02a2a">BAT_RAW</text>
<line x1="340" y1="162" x2="340" y2="476.5" stroke="#b02a2a" stroke-width="1" stroke-dasharray="2 3" opacity="0.5"/>
</g>
<g class="net" data-net="BAT_POS">
<line x1="366" y1="340.5" x2="366" y2="607.5" stroke="#e03131" stroke-width="3.2" stroke-linecap="round"/>
<text transform="translate(370,158) rotate(-60)" style="font-family:'DejaVu Sans',Helvetica,Arial,sans-serif;font-size:11px;font-weight:bold" fill="#e03131">BAT_POS</text>
<line x1="366" y1="162" x2="366" y2="340.5" stroke="#e03131" stroke-width="1" stroke-dasharray="2 3" opacity="0.5"/>
</g>
<g class="net" data-net="BAT_NEG">
<line x1="392" y1="361.5" x2="392" y2="513.5" stroke="#343a40" stroke-width="3.2" stroke-linecap="round"/>
<text transform="translate(396,158) rotate(-60)" style="font-family:'DejaVu Sans',Helvetica,Arial,sans-serif;font-size:11px;font-weight:bold" fill="#343a40">BAT_NEG</text>
<line x1="392" y1="162" x2="392" y2="361.5" stroke="#343a40" stroke-width="1" stroke-dasharray="2 3" opacity="0.5"/>
</g>
<g class="net" data-net="OUT_5V">
<line x1="418" y1="382.5" x2="418" y2="680.5" stroke="#f08c00" stroke-width="3.2" stroke-linecap="round"/>
<text transform="translate(422,158) rotate(-60)" style="font-family:'DejaVu Sans',Helvetica,Arial,sans-serif;font-size:11px;font-weight:bold" fill="#f08c00">OUT_5V</text>
<line x1="418" y1="162" x2="418" y2="382.5" stroke="#f08c00" stroke-width="1" stroke-dasharray="2 3" opacity="0.5"/>
</g>
<g class="net" data-net="LOAD_5V">
<line x1="444" y1="204.5" x2="444" y2="774.5" stroke="#d6336c" stroke-width="3.2" stroke-linecap="round"/>
<text transform="translate(448,158) rotate(-60)" style="font-family:'DejaVu Sans',Helvetica,Arial,sans-serif;font-size:11px;font-weight:bold" fill="#d6336c">LOAD_5V</text>
<line x1="444" y1="162" x2="444" y2="204.5" stroke="#d6336c" stroke-width="1" stroke-dasharray="2 3" opacity="0.5"/>
</g>
<g class="net" data-net="GND">
<line x1="470" y1="225.5" x2="470" y2="795.5" stroke="#111418" stroke-width="3.2" stroke-linecap="round"/>
<text transform="translate(474,158) rotate(-60)" style="font-family:'DejaVu Sans',Helvetica,Arial,sans-serif;font-size:11px;font-weight:bold" fill="#111418">GND</text>
<line x1="470" y1="162" x2="470" y2="225.5" stroke="#111418" stroke-width="1" stroke-dasharray="2 3" opacity="0.5"/>
</g>
<g class="net" data-net="3V3">
<line x1="496" y1="246.5" x2="496" y2="544.5" stroke="#7048e8" stroke-width="3.2" stroke-linecap="round"/>
<text transform="translate(500,158) rotate(-60)" style="font-family:'DejaVu Sans',Helvetica,Arial,sans-serif;font-size:11px;font-weight:bold" fill="#7048e8">3V3</text>
<line x1="496" y1="162" x2="496" y2="246.5" stroke="#7048e8" stroke-width="1" stroke-dasharray="2 3" opacity="0.5"/>
</g>
<g class="net" data-net="USB_5V" data-row="P01">
<title>P01 USBC.VBUS → USB_5V — USB-C breakout VBUS to charger input</title>
<line x1="242" y1="212.5" x2="288" y2="212.5" stroke="#e8590c" stroke-width="2"/>
<circle cx="288" cy="212.5" r="4.2" fill="#e8590c" stroke="#fff" stroke-width="1.2"/>
</g>
<g class="net" data-net="USB_5V" data-row="P02">
<title>P02 DFR1026.VIN → USB_5V — charger input (4.6–5.4 V)</title>
<line x1="242" y1="306.5" x2="288" y2="306.5" stroke="#e8590c" stroke-width="2"/>
<circle cx="288" cy="306.5" r="4.2" fill="#e8590c" stroke="#fff" stroke-width="1.2"/>
</g>
<g class="net" data-net="USB_GND" data-row="P03">
<title>P03 USBC.GND → USB_GND</title>
<line x1="242" y1="233.5" x2="314" y2="233.5" stroke="#5c636a" stroke-width="2"/>
<circle cx="314" cy="233.5" r="4.2" fill="#5c636a" stroke="#fff" stroke-width="1.2"/>
</g>
<g class="net" data-net="USB_GND" data-row="P04">
<title>P04 DFR1026.GND_IN → USB_GND — charger input ground pad</title>
<line x1="242" y1="327.5" x2="314" y2="327.5" stroke="#5c636a" stroke-width="2"/>
<circle cx="314" cy="327.5" r="4.2" fill="#5c636a" stroke="#fff" stroke-width="1.2"/>
</g>
<g class="net" data-net="BAT_RAW" data-row="P05">
<title>P05 CELL.+ → BAT_RAW — cell holder positive lead, keep short</title>
<line x1="242" y1="484.5" x2="340" y2="484.5" stroke="#b02a2a" stroke-width="2"/>
<circle cx="340" cy="484.5" r="4.2" fill="#b02a2a" stroke="#fff" stroke-width="1.2"/>
</g>
<g class="net" data-net="BAT_RAW" data-row="P06">
<title>P06 FUSE.A → BAT_RAW — 3 A fuse, insulated holder, mandatory</title>
<line x1="242" y1="578.5" x2="340" y2="578.5" stroke="#b02a2a" stroke-width="2"/>
<circle cx="340" cy="578.5" r="4.2" fill="#b02a2a" stroke="#fff" stroke-width="1.2"/>
</g>
<g class="net" data-net="BAT_POS" data-row="P07">
<title>P07 FUSE.B → BAT_POS</title>
<line x1="242" y1="599.5" x2="366" y2="599.5" stroke="#e03131" stroke-width="2"/>
<circle cx="366" cy="599.5" r="4.2" fill="#e03131" stroke="#fff" stroke-width="1.2"/>
</g>
<g class="net" data-net="BAT_POS" data-row="P08">
<title>P08 DFR1026.BAT+ → BAT_POS</title>
<line x1="242" y1="348.5" x2="366" y2="348.5" stroke="#e03131" stroke-width="2"/>
<circle cx="366" cy="348.5" r="4.2" fill="#e03131" stroke="#fff" stroke-width="1.2"/>
</g>
<g class="net" data-net="BAT_NEG" data-row="P09">
<title>P09 CELL.- → BAT_NEG — cell holder negative lead</title>
<line x1="242" y1="505.5" x2="392" y2="505.5" stroke="#343a40" stroke-width="2"/>
<circle cx="392" cy="505.5" r="4.2" fill="#343a40" stroke="#fff" stroke-width="1.2"/>
</g>
<g class="net" data-net="BAT_NEG" data-row="P10">
<title>P10 DFR1026.GND_BAT → BAT_NEG — battery ground pad only; do not tie elsewhere</title>
<line x1="242" y1="369.5" x2="392" y2="369.5" stroke="#343a40" stroke-width="2"/>
<circle cx="392" cy="369.5" r="4.2" fill="#343a40" stroke="#fff" stroke-width="1.2"/>
</g>
<g class="net" data-net="OUT_5V" data-row="P11">
<title>P11 DFR1026.OUT_5V → OUT_5V — regulated 5 V output</title>
<line x1="242" y1="390.5" x2="418" y2="390.5" stroke="#f08c00" stroke-width="2"/>
<circle cx="418" cy="390.5" r="4.2" fill="#f08c00" stroke="#fff" stroke-width="1.2"/>
</g>
<g class="net" data-net="OUT_5V" data-row="P12">
<title>P12 SW.1 → OUT_5V — latching switch, rated ≥2 A at 5 V</title>
<line x1="242" y1="672.5" x2="418" y2="672.5" stroke="#f08c00" stroke-width="2"/>
<circle cx="418" cy="672.5" r="4.2" fill="#f08c00" stroke="#fff" stroke-width="1.2"/>
</g>
<g class="net" data-net="LOAD_5V" data-row="P13">
<title>P13 SW.2 → LOAD_5V — star point for the load branches</title>
<line x1="242" y1="693.5" x2="444" y2="693.5" stroke="#d6336c" stroke-width="2"/>
<circle cx="444" cy="693.5" r="4.2" fill="#d6336c" stroke="#fff" stroke-width="1.2"/>
</g>
<g class="net" data-net="GND" data-row="P14">
<title>P14 DFR1026.GND_OUT → GND — common ground star point</title>
<line x1="242" y1="411.5" x2="470" y2="411.5" stroke="#111418" stroke-width="2"/>
<circle cx="470" cy="411.5" r="4.2" fill="#111418" stroke="#fff" stroke-width="1.2"/>
</g>
<g class="net" data-net="LOAD_5V" data-row="P15">
<title>P15 ESP32.VIN → LOAD_5V — via keyed disconnect J1 pin 1; own branch from the star point</title>
<line x1="542" y1="212.5" x2="444" y2="212.5" stroke="#d6336c" stroke-width="2"/>
<circle cx="444" cy="212.5" r="4.2" fill="#d6336c" stroke="#fff" stroke-width="1.2"/>
</g>
<g class="net" data-net="GND" data-row="P16">
<title>P16 ESP32.GND → GND — via keyed disconnect J1 pin 2</title>
<line x1="542" y1="233.5" x2="470" y2="233.5" stroke="#111418" stroke-width="2"/>
<circle cx="470" cy="233.5" r="4.2" fill="#111418" stroke="#fff" stroke-width="1.2"/>
</g>
<g class="net" data-net="LOAD_5V" data-row="P17">
<title>P17 SERVO.RED → LOAD_5V — own short branch, separate from the ESP32 branch</title>
<line x1="542" y1="421.5" x2="444" y2="421.5" stroke="#d6336c" stroke-width="2"/>
<circle cx="444" cy="421.5" r="4.2" fill="#d6336c" stroke="#fff" stroke-width="1.2"/>
</g>
<g class="net" data-net="GND" data-row="P18">
<title>P18 SERVO.BROWN → GND — brown or black lead</title>
<line x1="542" y1="442.5" x2="470" y2="442.5" stroke="#111418" stroke-width="2"/>
<circle cx="470" cy="442.5" r="4.2" fill="#111418" stroke="#fff" stroke-width="1.2"/>
</g>
<g class="net" data-net="LOAD_5V" data-row="P19">
<title>P19 C1.+ → LOAD_5V — 1000 µF ≥10 V, mounted at the servo end; mind polarity</title>
<line x1="242" y1="766.5" x2="444" y2="766.5" stroke="#d6336c" stroke-width="2"/>
<circle cx="444" cy="766.5" r="4.2" fill="#d6336c" stroke="#fff" stroke-width="1.2"/>
</g>
<g class="net" data-net="GND" data-row="P20">
<title>P20 C1.- → GND — stripe side</title>
<line x1="242" y1="787.5" x2="470" y2="787.5" stroke="#111418" stroke-width="2"/>
<circle cx="470" cy="787.5" r="4.2" fill="#111418" stroke="#fff" stroke-width="1.2"/>
</g>
<g class="net" data-net="LOAD_5V" data-row="P21">
<title>P21 SR04.VCC → LOAD_5V</title>
<line x1="542" y1="327.5" x2="444" y2="327.5" stroke="#d6336c" stroke-width="2"/>
<circle cx="444" cy="327.5" r="4.2" fill="#d6336c" stroke="#fff" stroke-width="1.2"/>
</g>
<g class="net" data-net="GND" data-row="P22">
<title>P22 SR04.GND → GND</title>
<line x1="542" y1="348.5" x2="470" y2="348.5" stroke="#111418" stroke-width="2"/>
<circle cx="470" cy="348.5" r="4.2" fill="#111418" stroke="#fff" stroke-width="1.2"/>
</g>
<g class="net" data-net="3V3" data-row="P23">
<title>P23 ESP32.3V3 → 3V3 — ESP32 on-board regulator output</title>
<line x1="542" y1="254.5" x2="496" y2="254.5" stroke="#7048e8" stroke-width="2"/>
<circle cx="496" cy="254.5" r="4.2" fill="#7048e8" stroke="#fff" stroke-width="1.2"/>
</g>
<g class="net" data-net="3V3" data-row="P24">
<title>P24 LCD.VCC → 3V3</title>
<line x1="542" y1="515.5" x2="496" y2="515.5" stroke="#7048e8" stroke-width="2"/>
<circle cx="496" cy="515.5" r="4.2" fill="#7048e8" stroke="#fff" stroke-width="1.2"/>
</g>
<g class="net" data-net="3V3" data-row="P25">
<title>P25 LCD.BL → 3V3 — backlight always on</title>
<line x1="542" y1="536.5" x2="496" y2="536.5" stroke="#7048e8" stroke-width="2"/>
<circle cx="496" cy="536.5" r="4.2" fill="#7048e8" stroke="#fff" stroke-width="1.2"/>
</g>
<g class="net" data-net="GND" data-row="P26">
<title>P26 LCD.GND → GND</title>
<line x1="542" y1="557.5" x2="470" y2="557.5" stroke="#111418" stroke-width="2"/>
<circle cx="470" cy="557.5" r="4.2" fill="#111418" stroke="#fff" stroke-width="1.2"/>
</g>
<rect x="30" y="170" width="212" height="78" rx="7" fill="#f6f8f7" stroke="#2b3a33" stroke-width="1.6"/>
<rect x="30" y="170" width="212" height="26" rx="7" fill="#1f3b2d"/>
<rect x="30" y="188" width="212" height="8" fill="#1f3b2d"/>
<text x="40" y="188" style="font-family:'DejaVu Sans',Helvetica,Arial,sans-serif;font-size:13px;font-weight:bold" fill="#d9f7e3">USB-C input breakout</text>
<text x="232" y="216.5" text-anchor="end" style="font-family:'DejaVu Sans',Helvetica,Arial,sans-serif;font-size:12.5px" fill="#111">VBUS</text>
<text x="232" y="237.5" text-anchor="end" style="font-family:'DejaVu Sans',Helvetica,Arial,sans-serif;font-size:12.5px" fill="#111">GND</text>
<rect x="30" y="264" width="212" height="162" rx="7" fill="#f6f8f7" stroke="#2b3a33" stroke-width="1.6"/>
<rect x="30" y="264" width="212" height="26" rx="7" fill="#1f3b2d"/>
<rect x="30" y="282" width="212" height="8" fill="#1f3b2d"/>
<text x="40" y="282" style="font-family:'DejaVu Sans',Helvetica,Arial,sans-serif;font-size:13px;font-weight:bold" fill="#d9f7e3">DFR1026 charger/boost</text>
<text x="232" y="310.5" text-anchor="end" style="font-family:'DejaVu Sans',Helvetica,Arial,sans-serif;font-size:12.5px" fill="#111">VIN</text>
<text x="232" y="331.5" text-anchor="end" style="font-family:'DejaVu Sans',Helvetica,Arial,sans-serif;font-size:12.5px" fill="#111">GND_IN</text>
<text x="232" y="352.5" text-anchor="end" style="font-family:'DejaVu Sans',Helvetica,Arial,sans-serif;font-size:12.5px" fill="#111">BAT+</text>
<text x="232" y="373.5" text-anchor="end" style="font-family:'DejaVu Sans',Helvetica,Arial,sans-serif;font-size:12.5px" fill="#111">GND_BAT</text>
<text x="232" y="394.5" text-anchor="end" style="font-family:'DejaVu Sans',Helvetica,Arial,sans-serif;font-size:12.5px" fill="#111">OUT_5V</text>
<text x="232" y="415.5" text-anchor="end" style="font-family:'DejaVu Sans',Helvetica,Arial,sans-serif;font-size:12.5px" fill="#111">GND_OUT</text>
<rect x="30" y="442" width="212" height="78" rx="7" fill="#f6f8f7" stroke="#2b3a33" stroke-width="1.6"/>
<rect x="30" y="442" width="212" height="26" rx="7" fill="#1f3b2d"/>
<rect x="30" y="460" width="212" height="8" fill="#1f3b2d"/>
<text x="40" y="460" style="font-family:'DejaVu Sans',Helvetica,Arial,sans-serif;font-size:13px;font-weight:bold" fill="#d9f7e3">18650 cell (protected)</text>
<text x="232" y="488.5" text-anchor="end" style="font-family:'DejaVu Sans',Helvetica,Arial,sans-serif;font-size:12.5px" fill="#111">+</text>
<text x="232" y="509.5" text-anchor="end" style="font-family:'DejaVu Sans',Helvetica,Arial,sans-serif;font-size:12.5px" fill="#111">-</text>
<rect x="30" y="536" width="212" height="78" rx="7" fill="#f6f8f7" stroke="#2b3a33" stroke-width="1.6"/>
<rect x="30" y="536" width="212" height="26" rx="7" fill="#1f3b2d"/>
<rect x="30" y="554" width="212" height="8" fill="#1f3b2d"/>
<text x="40" y="554" style="font-family:'DejaVu Sans',Helvetica,Arial,sans-serif;font-size:13px;font-weight:bold" fill="#d9f7e3">3 A inline fuse</text>
<text x="232" y="582.5" text-anchor="end" style="font-family:'DejaVu Sans',Helvetica,Arial,sans-serif;font-size:12.5px" fill="#111">A</text>
<text x="232" y="603.5" text-anchor="end" style="font-family:'DejaVu Sans',Helvetica,Arial,sans-serif;font-size:12.5px" fill="#111">B</text>
<rect x="30" y="630" width="212" height="78" rx="7" fill="#f6f8f7" stroke="#2b3a33" stroke-width="1.6"/>
<rect x="30" y="630" width="212" height="26" rx="7" fill="#1f3b2d"/>
<rect x="30" y="648" width="212" height="8" fill="#1f3b2d"/>
<text x="40" y="648" style="font-family:'DejaVu Sans',Helvetica,Arial,sans-serif;font-size:13px;font-weight:bold" fill="#d9f7e3">Latching switch</text>
<text x="232" y="676.5" text-anchor="end" style="font-family:'DejaVu Sans',Helvetica,Arial,sans-serif;font-size:12.5px" fill="#111">1</text>
<text x="232" y="697.5" text-anchor="end" style="font-family:'DejaVu Sans',Helvetica,Arial,sans-serif;font-size:12.5px" fill="#111">2</text>
<rect x="30" y="724" width="212" height="78" rx="7" fill="#f6f8f7" stroke="#2b3a33" stroke-width="1.6"/>
<rect x="30" y="724" width="212" height="26" rx="7" fill="#1f3b2d"/>
<rect x="30" y="742" width="212" height="8" fill="#1f3b2d"/>
<text x="40" y="742" style="font-family:'DejaVu Sans',Helvetica,Arial,sans-serif;font-size:13px;font-weight:bold" fill="#d9f7e3">C1 1000 µF</text>
<text x="232" y="770.5" text-anchor="end" style="font-family:'DejaVu Sans',Helvetica,Arial,sans-serif;font-size:12.5px" fill="#111">+</text>
<text x="232" y="791.5" text-anchor="end" style="font-family:'DejaVu Sans',Helvetica,Arial,sans-serif;font-size:12.5px" fill="#111">-</text>
<rect x="542" y="170" width="212" height="99" rx="7" fill="#f6f8f7" stroke="#2b3a33" stroke-width="1.6"/>
<rect x="542" y="170" width="212" height="26" rx="7" fill="#1f3b2d"/>
<rect x="542" y="188" width="212" height="8" fill="#1f3b2d"/>
<text x="552" y="188" style="font-family:'DejaVu Sans',Helvetica,Arial,sans-serif;font-size:13px;font-weight:bold" fill="#d9f7e3">ESP32-WROOM-32 DevKit</text>
<text x="552" y="216.5" style="font-family:'DejaVu Sans',Helvetica,Arial,sans-serif;font-size:12.5px" fill="#111">VIN</text>
<text x="552" y="237.5" style="font-family:'DejaVu Sans',Helvetica,Arial,sans-serif;font-size:12.5px" fill="#111">GND</text>
<text x="552" y="258.5" style="font-family:'DejaVu Sans',Helvetica,Arial,sans-serif;font-size:12.5px" fill="#111">3V3</text>
<rect x="542" y="285" width="212" height="78" rx="7" fill="#f6f8f7" stroke="#2b3a33" stroke-width="1.6"/>
<rect x="542" y="285" width="212" height="26" rx="7" fill="#1f3b2d"/>
<rect x="542" y="303" width="212" height="8" fill="#1f3b2d"/>
<text x="552" y="303" style="font-family:'DejaVu Sans',Helvetica,Arial,sans-serif;font-size:13px;font-weight:bold" fill="#d9f7e3">HC-SR04</text>
<text x="552" y="331.5" style="font-family:'DejaVu Sans',Helvetica,Arial,sans-serif;font-size:12.5px" fill="#111">VCC</text>
<text x="552" y="352.5" style="font-family:'DejaVu Sans',Helvetica,Arial,sans-serif;font-size:12.5px" fill="#111">GND</text>
<rect x="542" y="379" width="212" height="78" rx="7" fill="#f6f8f7" stroke="#2b3a33" stroke-width="1.6"/>
<rect x="542" y="379" width="212" height="26" rx="7" fill="#1f3b2d"/>
<rect x="542" y="397" width="212" height="8" fill="#1f3b2d"/>
<text x="552" y="397" style="font-family:'DejaVu Sans',Helvetica,Arial,sans-serif;font-size:13px;font-weight:bold" fill="#d9f7e3">SG90-size servo</text>
<text x="552" y="425.5" style="font-family:'DejaVu Sans',Helvetica,Arial,sans-serif;font-size:12.5px" fill="#111">RED</text>
<text x="552" y="446.5" style="font-family:'DejaVu Sans',Helvetica,Arial,sans-serif;font-size:12.5px" fill="#111">BROWN</text>
<rect x="542" y="473" width="212" height="99" rx="7" fill="#f6f8f7" stroke="#2b3a33" stroke-width="1.6"/>
<rect x="542" y="473" width="212" height="26" rx="7" fill="#1f3b2d"/>
<rect x="542" y="491" width="212" height="8" fill="#1f3b2d"/>
<text x="552" y="491" style="font-family:'DejaVu Sans',Helvetica,Arial,sans-serif;font-size:13px;font-weight:bold" fill="#d9f7e3">ST7735S 1.8" LCD</text>
<text x="552" y="519.5" style="font-family:'DejaVu Sans',Helvetica,Arial,sans-serif;font-size:12.5px" fill="#111">VCC</text>
<text x="552" y="540.5" style="font-family:'DejaVu Sans',Helvetica,Arial,sans-serif;font-size:12.5px" fill="#111">BL</text>
<text x="552" y="561.5" style="font-family:'DejaVu Sans',Helvetica,Arial,sans-serif;font-size:12.5px" fill="#111">GND</text>
<text x="30" y="834" style="font-family:'DejaVu Sans',Helvetica,Arial,sans-serif;font-size:11.5px" fill="#666">Generated from the NETLIST table in docs/WIRING.md by scripts/gen_diagrams.py — do not edit by hand.</text>
<text x="30" y="852" style="font-family:'DejaVu Sans',Helvetica,Arial,sans-serif;font-size:11.5px" fill="#666">Dots mark connections; lines that cross without a dot are not connected. Follow labels, not wire colours.</text>
</svg>
